<svg width="73" height="83" viewBox="0 0 73 83" fill="none" xmlns="http://www.w3.org/2000/svg">
<path d="M72.6748 14.6719C72.6748 5.15918 53.915 0.826172 36.4834 0.826172C19.168 0.826172 0.541016 5.10938 0.325195 14.5059C0.325195 14.5225 10.1533 74.0889 10.585 74.5537C13.9053 79.7832 25.2441 82.1738 36.5166 82.1738C47.9053 82.1738 59.3936 79.7334 62.5478 74.3711C62.8799 73.9395 72.6748 15.4355 72.6748 14.6719ZM56.6211 71.0508C55.9736 71.9473 52.7363 73.5742 47.0088 74.5703L49.0342 54.25C53.0352 53.6357 56.7373 52.7227 59.8086 51.4941C59.8252 51.4941 56.6377 70.8018 56.6211 71.0508ZM11.7471 42.9277L8.64258 23.9355C12.1455 25.4795 16.5117 26.6084 21.2598 27.3721L23.252 47.2939C16.2793 46.0488 12.4443 44.0068 11.7471 42.9277ZM28.166 28.1855C30.9219 28.4014 33.7275 28.5176 36.5 28.5176C39.2725 28.5176 42.0781 28.4014 44.834 28.1855L42.8418 48.1572C40.8828 48.3066 38.7744 48.3896 36.5 48.3896C34.2256 48.3896 32.1172 48.3066 30.1582 48.1572L28.166 28.1855ZM51.7402 27.3721C56.4717 26.625 60.8213 25.4795 64.3076 23.9521L61.2197 42.9111C60.3896 44.0732 56.5713 46.0654 49.7314 47.2939L51.7402 27.3721ZM36.5 7.59961C55.0273 7.93164 66.1006 12.1484 65.8516 14.8711C65.6855 16.7969 54.3965 21.7441 36.5 21.7441C18.3047 21.7441 7.67969 16.7637 7.19824 15.0205C6.48438 12.4307 19.583 7.30078 36.5 7.59961ZM16.3789 71.0508C16.3623 70.7021 13.125 51.4775 13.125 51.4775C16.1963 52.7227 19.9316 53.6523 23.9492 54.25L25.9746 74.5703C20.2637 73.5742 17.0264 71.9473 16.3789 71.0508ZM32.8809 75.3008L30.8555 54.9805C32.7314 55.0967 34.6406 55.1631 36.5166 55.1631C38.3926 55.1631 40.2852 55.0967 42.1777 54.9805L40.1523 75.3008C39.0068 75.3506 37.7949 75.3838 36.5332 75.3838C35.2383 75.4004 34.0264 75.3672 32.8809 75.3008Z" fill="#FF9900"/>
</svg>
